M48
; DRILL file {KiCad 5.1.6} date Wed Sep 23 23:00:42 2020
; FORMAT={-:-/ absolute / metric / decimal}
; #@! TF.CreationDate,2020-09-23T23:00:42+02:00
; #@! TF.GenerationSoftware,Kicad,Pcbnew,5.1.6
; #@! TF.FileFunction,Plated,1,4,PTH
FMAT,2
METRIC
T1C0.300
T2C0.800
T3C1.000
T4C3.200
%
G90
G05
T1
X43.3Y-69.6
X46.0Y-55.5
X46.1Y-53.0
X53.0Y-58.5
X54.3Y-58.5
X54.8Y-55.0
X56.2Y-55.0
X56.8Y-58.3
X59.6Y-52.7
X60.985Y-54.966
X64.3Y-67.7
X65.0Y-58.4
X65.9Y-70.4
X66.1Y-58.4
X66.8Y-68.5
X67.4Y-58.4
X70.0Y-58.2
X71.9Y-66.0
X73.9Y-70.4
X74.4Y-68.1
X79.3Y-70.4
X85.3Y-56.9
X87.1Y-26.1
X97.6Y-69.4
X99.4Y-68.9
X101.4Y-68.4
X103.0Y-40.9
X103.4Y-67.9
X105.0Y-67.0
X107.4Y-66.8
X109.0Y-66.6
X109.25Y-63.65
X110.1Y-64.9
X110.1Y-66.719
X112.6Y-67.209
X115.1Y-67.7
X117.6Y-68.2
X120.2Y-68.609
X122.7Y-69.1
X123.8Y-54.04
X125.2Y-69.609
X141.224Y-69.596
X141.4Y-9.9
T2
X75.54Y-38.8
X75.54Y-54.04
X78.08Y-38.8
X78.08Y-54.04
X80.62Y-38.8
X80.62Y-54.04
X83.16Y-38.8
X83.16Y-54.04
X85.7Y-38.8
X85.7Y-54.04
X88.24Y-38.8
X88.24Y-54.04
X90.78Y-38.8
X90.78Y-54.04
X93.32Y-38.8
X93.32Y-54.04
X95.86Y-38.8
X95.86Y-54.04
X98.4Y-38.8
X98.4Y-54.04
X100.94Y-38.8
X100.94Y-54.04
X103.48Y-38.8
X103.48Y-54.04
X106.02Y-38.8
X106.02Y-54.04
X108.56Y-38.8
X108.56Y-54.04
X111.1Y-38.8
X111.1Y-54.04
X113.64Y-38.8
X113.64Y-54.04
X116.18Y-38.8
X116.18Y-54.04
X118.72Y-38.8
X118.72Y-54.04
X121.26Y-38.8
X121.26Y-54.04
X123.8Y-38.8
X123.8Y-54.04
T3
X44.704Y-42.164
X44.704Y-44.704
X47.244Y-42.164
X47.244Y-44.704
X49.784Y-42.164
X49.784Y-44.704
X52.324Y-42.164
X52.324Y-44.704
X54.864Y-42.164
X54.864Y-44.704
X57.404Y-42.164
X57.404Y-44.704
X59.944Y-42.164
X59.944Y-44.704
X62.484Y-42.164
X62.484Y-44.704
X131.0Y-20.0
X131.0Y-22.77
X131.0Y-25.54
X131.0Y-28.31
X131.0Y-31.08
X131.0Y-33.85
X131.0Y-36.62
X131.0Y-39.39
X131.0Y-42.16
X131.0Y-44.93
X131.0Y-47.7
X131.0Y-50.47
X131.0Y-53.24
X133.84Y-21.385
X133.84Y-24.155
X133.84Y-26.925
X133.84Y-29.695
X133.84Y-32.465
X133.84Y-35.235
X133.84Y-38.005
X133.84Y-40.775
X133.84Y-43.545
X133.84Y-46.315
X133.84Y-49.085
X133.84Y-51.855
X44.0Y-72.0
X46.54Y-72.0
X49.08Y-72.0
X51.62Y-72.0
X54.16Y-72.0
X56.7Y-72.0
X59.24Y-72.0
X61.78Y-72.0
X64.32Y-72.0
X66.86Y-72.0
X69.4Y-72.0
X71.94Y-72.0
X74.48Y-72.0
X77.02Y-72.0
X79.56Y-72.0
X82.1Y-72.0
X84.64Y-72.0
X87.18Y-72.0
X89.72Y-72.0
X92.26Y-72.0
X94.8Y-72.0
X97.34Y-72.0
X99.88Y-72.0
X102.42Y-72.0
X104.96Y-72.0
X107.5Y-72.0
X110.04Y-72.0
X112.58Y-72.0
X115.12Y-72.0
X117.66Y-72.0
X120.2Y-72.0
X122.74Y-72.0
X125.28Y-72.0
X127.82Y-72.0
X130.36Y-72.0
X132.9Y-72.0
X135.44Y-72.0
X137.98Y-72.0
X140.52Y-72.0
T4
X132.42Y-13.07
X132.42Y-60.17
T0
M30
