%TF.GenerationSoftware,KiCad,Pcbnew,5.1.6*%
%TF.CreationDate,2020-09-23T23:00:43+02:00*%
%TF.ProjectId,RC2014-LPT,52433230-3134-42d4-9c50-542e6b696361,rev?*%
%TF.SameCoordinates,Original*%
%TF.FileFunction,Soldermask,Top*%
%TF.FilePolarity,Negative*%
%FSLAX46Y46*%
G04 Gerber Fmt 4.6, Leading zero omitted, Abs format (unit mm)*
G04 Created by KiCad (PCBNEW 5.1.6) date 2020-09-23 23:00:43*
%MOMM*%
%LPD*%
G01*
G04 APERTURE LIST*
%ADD10O,1.700000X1.700000*%
%ADD11R,1.700000X1.700000*%
%ADD12C,4.100000*%
%ADD13C,1.700000*%
%ADD14C,1.252000*%
%ADD15O,1.800000X1.800000*%
%ADD16R,1.800000X1.800000*%
G04 APERTURE END LIST*
D10*
%TO.C,U1*%
X123800000Y-54040000D03*
X75540000Y-38800000D03*
X121260000Y-54040000D03*
X78080000Y-38800000D03*
X118720000Y-54040000D03*
X80620000Y-38800000D03*
X116180000Y-54040000D03*
X83160000Y-38800000D03*
X113640000Y-54040000D03*
X85700000Y-38800000D03*
X111100000Y-54040000D03*
X88240000Y-38800000D03*
X108560000Y-54040000D03*
X90780000Y-38800000D03*
X106020000Y-54040000D03*
X93320000Y-38800000D03*
X103480000Y-54040000D03*
X95860000Y-38800000D03*
X100940000Y-54040000D03*
X98400000Y-38800000D03*
X98400000Y-54040000D03*
X100940000Y-38800000D03*
X95860000Y-54040000D03*
X103480000Y-38800000D03*
X93320000Y-54040000D03*
X106020000Y-38800000D03*
X90780000Y-54040000D03*
X108560000Y-38800000D03*
X88240000Y-54040000D03*
X111100000Y-38800000D03*
X85700000Y-54040000D03*
X113640000Y-38800000D03*
X83160000Y-54040000D03*
X116180000Y-38800000D03*
X80620000Y-54040000D03*
X118720000Y-38800000D03*
X78080000Y-54040000D03*
X121260000Y-38800000D03*
X75540000Y-54040000D03*
D11*
X123800000Y-38800000D03*
%TD*%
%TO.C,C2*%
G36*
G01*
X86560000Y-56702500D02*
X86560000Y-57097500D01*
G75*
G02*
X86387500Y-57270000I-172500J0D01*
G01*
X86042500Y-57270000D01*
G75*
G02*
X85870000Y-57097500I0J172500D01*
G01*
X85870000Y-56702500D01*
G75*
G02*
X86042500Y-56530000I172500J0D01*
G01*
X86387500Y-56530000D01*
G75*
G02*
X86560000Y-56702500I0J-172500D01*
G01*
G37*
G36*
G01*
X87530000Y-56702500D02*
X87530000Y-57097500D01*
G75*
G02*
X87357500Y-57270000I-172500J0D01*
G01*
X87012500Y-57270000D01*
G75*
G02*
X86840000Y-57097500I0J172500D01*
G01*
X86840000Y-56702500D01*
G75*
G02*
X87012500Y-56530000I172500J0D01*
G01*
X87357500Y-56530000D01*
G75*
G02*
X87530000Y-56702500I0J-172500D01*
G01*
G37*
%TD*%
%TO.C,C11*%
G36*
G01*
X45840000Y-54369000D02*
X46235000Y-54369000D01*
G75*
G02*
X46407500Y-54541500I0J-172500D01*
G01*
X46407500Y-54886500D01*
G75*
G02*
X46235000Y-55059000I-172500J0D01*
G01*
X45840000Y-55059000D01*
G75*
G02*
X45667500Y-54886500I0J172500D01*
G01*
X45667500Y-54541500D01*
G75*
G02*
X45840000Y-54369000I172500J0D01*
G01*
G37*
G36*
G01*
X45840000Y-53399000D02*
X46235000Y-53399000D01*
G75*
G02*
X46407500Y-53571500I0J-172500D01*
G01*
X46407500Y-53916500D01*
G75*
G02*
X46235000Y-54089000I-172500J0D01*
G01*
X45840000Y-54089000D01*
G75*
G02*
X45667500Y-53916500I0J172500D01*
G01*
X45667500Y-53571500D01*
G75*
G02*
X45840000Y-53399000I172500J0D01*
G01*
G37*
%TD*%
%TO.C,U3*%
G36*
G01*
X61230000Y-52850000D02*
X60880000Y-52850000D01*
G75*
G02*
X60705000Y-52675000I0J175000D01*
G01*
X60705000Y-50975000D01*
G75*
G02*
X60880000Y-50800000I175000J0D01*
G01*
X61230000Y-50800000D01*
G75*
G02*
X61405000Y-50975000I0J-175000D01*
G01*
X61405000Y-52675000D01*
G75*
G02*
X61230000Y-52850000I-175000J0D01*
G01*
G37*
G36*
G01*
X62500000Y-52850000D02*
X62150000Y-52850000D01*
G75*
G02*
X61975000Y-52675000I0J175000D01*
G01*
X61975000Y-50975000D01*
G75*
G02*
X62150000Y-50800000I175000J0D01*
G01*
X62500000Y-50800000D01*
G75*
G02*
X62675000Y-50975000I0J-175000D01*
G01*
X62675000Y-52675000D01*
G75*
G02*
X62500000Y-52850000I-175000J0D01*
G01*
G37*
G36*
G01*
X63770000Y-52850000D02*
X63420000Y-52850000D01*
G75*
G02*
X63245000Y-52675000I0J175000D01*
G01*
X63245000Y-50975000D01*
G75*
G02*
X63420000Y-50800000I175000J0D01*
G01*
X63770000Y-50800000D01*
G75*
G02*
X63945000Y-50975000I0J-175000D01*
G01*
X63945000Y-52675000D01*
G75*
G02*
X63770000Y-52850000I-175000J0D01*
G01*
G37*
G36*
G01*
X65040000Y-52850000D02*
X64690000Y-52850000D01*
G75*
G02*
X64515000Y-52675000I0J175000D01*
G01*
X64515000Y-50975000D01*
G75*
G02*
X64690000Y-50800000I175000J0D01*
G01*
X65040000Y-50800000D01*
G75*
G02*
X65215000Y-50975000I0J-175000D01*
G01*
X65215000Y-52675000D01*
G75*
G02*
X65040000Y-52850000I-175000J0D01*
G01*
G37*
G36*
G01*
X66310000Y-52850000D02*
X65960000Y-52850000D01*
G75*
G02*
X65785000Y-52675000I0J175000D01*
G01*
X65785000Y-50975000D01*
G75*
G02*
X65960000Y-50800000I175000J0D01*
G01*
X66310000Y-50800000D01*
G75*
G02*
X66485000Y-50975000I0J-175000D01*
G01*
X66485000Y-52675000D01*
G75*
G02*
X66310000Y-52850000I-175000J0D01*
G01*
G37*
G36*
G01*
X67580000Y-52850000D02*
X67230000Y-52850000D01*
G75*
G02*
X67055000Y-52675000I0J175000D01*
G01*
X67055000Y-50975000D01*
G75*
G02*
X67230000Y-50800000I175000J0D01*
G01*
X67580000Y-50800000D01*
G75*
G02*
X67755000Y-50975000I0J-175000D01*
G01*
X67755000Y-52675000D01*
G75*
G02*
X67580000Y-52850000I-175000J0D01*
G01*
G37*
G36*
G01*
X68850000Y-52850000D02*
X68500000Y-52850000D01*
G75*
G02*
X68325000Y-52675000I0J175000D01*
G01*
X68325000Y-50975000D01*
G75*
G02*
X68500000Y-50800000I175000J0D01*
G01*
X68850000Y-50800000D01*
G75*
G02*
X69025000Y-50975000I0J-175000D01*
G01*
X69025000Y-52675000D01*
G75*
G02*
X68850000Y-52850000I-175000J0D01*
G01*
G37*
G36*
G01*
X70120000Y-52850000D02*
X69770000Y-52850000D01*
G75*
G02*
X69595000Y-52675000I0J175000D01*
G01*
X69595000Y-50975000D01*
G75*
G02*
X69770000Y-50800000I175000J0D01*
G01*
X70120000Y-50800000D01*
G75*
G02*
X70295000Y-50975000I0J-175000D01*
G01*
X70295000Y-52675000D01*
G75*
G02*
X70120000Y-52850000I-175000J0D01*
G01*
G37*
G36*
G01*
X70120000Y-57800000D02*
X69770000Y-57800000D01*
G75*
G02*
X69595000Y-57625000I0J175000D01*
G01*
X69595000Y-55925000D01*
G75*
G02*
X69770000Y-55750000I175000J0D01*
G01*
X70120000Y-55750000D01*
G75*
G02*
X70295000Y-55925000I0J-175000D01*
G01*
X70295000Y-57625000D01*
G75*
G02*
X70120000Y-57800000I-175000J0D01*
G01*
G37*
G36*
G01*
X68850000Y-57800000D02*
X68500000Y-57800000D01*
G75*
G02*
X68325000Y-57625000I0J175000D01*
G01*
X68325000Y-55925000D01*
G75*
G02*
X68500000Y-55750000I175000J0D01*
G01*
X68850000Y-55750000D01*
G75*
G02*
X69025000Y-55925000I0J-175000D01*
G01*
X69025000Y-57625000D01*
G75*
G02*
X68850000Y-57800000I-175000J0D01*
G01*
G37*
G36*
G01*
X67580000Y-57800000D02*
X67230000Y-57800000D01*
G75*
G02*
X67055000Y-57625000I0J175000D01*
G01*
X67055000Y-55925000D01*
G75*
G02*
X67230000Y-55750000I175000J0D01*
G01*
X67580000Y-55750000D01*
G75*
G02*
X67755000Y-55925000I0J-175000D01*
G01*
X67755000Y-57625000D01*
G75*
G02*
X67580000Y-57800000I-175000J0D01*
G01*
G37*
G36*
G01*
X66310000Y-57800000D02*
X65960000Y-57800000D01*
G75*
G02*
X65785000Y-57625000I0J175000D01*
G01*
X65785000Y-55925000D01*
G75*
G02*
X65960000Y-55750000I175000J0D01*
G01*
X66310000Y-55750000D01*
G75*
G02*
X66485000Y-55925000I0J-175000D01*
G01*
X66485000Y-57625000D01*
G75*
G02*
X66310000Y-57800000I-175000J0D01*
G01*
G37*
G36*
G01*
X65040000Y-57800000D02*
X64690000Y-57800000D01*
G75*
G02*
X64515000Y-57625000I0J175000D01*
G01*
X64515000Y-55925000D01*
G75*
G02*
X64690000Y-55750000I175000J0D01*
G01*
X65040000Y-55750000D01*
G75*
G02*
X65215000Y-55925000I0J-175000D01*
G01*
X65215000Y-57625000D01*
G75*
G02*
X65040000Y-57800000I-175000J0D01*
G01*
G37*
G36*
G01*
X63770000Y-57800000D02*
X63420000Y-57800000D01*
G75*
G02*
X63245000Y-57625000I0J175000D01*
G01*
X63245000Y-55925000D01*
G75*
G02*
X63420000Y-55750000I175000J0D01*
G01*
X63770000Y-55750000D01*
G75*
G02*
X63945000Y-55925000I0J-175000D01*
G01*
X63945000Y-57625000D01*
G75*
G02*
X63770000Y-57800000I-175000J0D01*
G01*
G37*
G36*
G01*
X62500000Y-57800000D02*
X62150000Y-57800000D01*
G75*
G02*
X61975000Y-57625000I0J175000D01*
G01*
X61975000Y-55925000D01*
G75*
G02*
X62150000Y-55750000I175000J0D01*
G01*
X62500000Y-55750000D01*
G75*
G02*
X62675000Y-55925000I0J-175000D01*
G01*
X62675000Y-57625000D01*
G75*
G02*
X62500000Y-57800000I-175000J0D01*
G01*
G37*
G36*
G01*
X61230000Y-57800000D02*
X60880000Y-57800000D01*
G75*
G02*
X60705000Y-57625000I0J175000D01*
G01*
X60705000Y-55925000D01*
G75*
G02*
X60880000Y-55750000I175000J0D01*
G01*
X61230000Y-55750000D01*
G75*
G02*
X61405000Y-55925000I0J-175000D01*
G01*
X61405000Y-57625000D01*
G75*
G02*
X61230000Y-57800000I-175000J0D01*
G01*
G37*
%TD*%
%TO.C,C1*%
G36*
G01*
X59402500Y-54455000D02*
X59797500Y-54455000D01*
G75*
G02*
X59970000Y-54627500I0J-172500D01*
G01*
X59970000Y-54972500D01*
G75*
G02*
X59797500Y-55145000I-172500J0D01*
G01*
X59402500Y-55145000D01*
G75*
G02*
X59230000Y-54972500I0J172500D01*
G01*
X59230000Y-54627500D01*
G75*
G02*
X59402500Y-54455000I172500J0D01*
G01*
G37*
G36*
G01*
X59402500Y-53485000D02*
X59797500Y-53485000D01*
G75*
G02*
X59970000Y-53657500I0J-172500D01*
G01*
X59970000Y-54002500D01*
G75*
G02*
X59797500Y-54175000I-172500J0D01*
G01*
X59402500Y-54175000D01*
G75*
G02*
X59230000Y-54002500I0J172500D01*
G01*
X59230000Y-53657500D01*
G75*
G02*
X59402500Y-53485000I172500J0D01*
G01*
G37*
%TD*%
D12*
%TO.C,J2*%
X132420000Y-13070000D03*
X132420000Y-60170000D03*
D13*
X133840000Y-51855000D03*
X133840000Y-49085000D03*
X133840000Y-46315000D03*
X133840000Y-43545000D03*
X133840000Y-40775000D03*
X133840000Y-38005000D03*
X133840000Y-35235000D03*
X133840000Y-32465000D03*
X133840000Y-29695000D03*
X133840000Y-26925000D03*
X133840000Y-24155000D03*
X133840000Y-21385000D03*
X131000000Y-53240000D03*
X131000000Y-50470000D03*
X131000000Y-47700000D03*
X131000000Y-44930000D03*
X131000000Y-42160000D03*
X131000000Y-39390000D03*
X131000000Y-36620000D03*
X131000000Y-33850000D03*
X131000000Y-31080000D03*
X131000000Y-28310000D03*
X131000000Y-25540000D03*
X131000000Y-22770000D03*
D11*
X131000000Y-20000000D03*
%TD*%
D14*
%TO.C,H2*%
X139319000Y-26670000D03*
%TD*%
%TO.C,H1*%
X45720000Y-69215000D03*
%TD*%
%TO.C,U2*%
G36*
G01*
X48117500Y-52841000D02*
X47767500Y-52841000D01*
G75*
G02*
X47592500Y-52666000I0J175000D01*
G01*
X47592500Y-50966000D01*
G75*
G02*
X47767500Y-50791000I175000J0D01*
G01*
X48117500Y-50791000D01*
G75*
G02*
X48292500Y-50966000I0J-175000D01*
G01*
X48292500Y-52666000D01*
G75*
G02*
X48117500Y-52841000I-175000J0D01*
G01*
G37*
G36*
G01*
X49387500Y-52841000D02*
X49037500Y-52841000D01*
G75*
G02*
X48862500Y-52666000I0J175000D01*
G01*
X48862500Y-50966000D01*
G75*
G02*
X49037500Y-50791000I175000J0D01*
G01*
X49387500Y-50791000D01*
G75*
G02*
X49562500Y-50966000I0J-175000D01*
G01*
X49562500Y-52666000D01*
G75*
G02*
X49387500Y-52841000I-175000J0D01*
G01*
G37*
G36*
G01*
X50657500Y-52841000D02*
X50307500Y-52841000D01*
G75*
G02*
X50132500Y-52666000I0J175000D01*
G01*
X50132500Y-50966000D01*
G75*
G02*
X50307500Y-50791000I175000J0D01*
G01*
X50657500Y-50791000D01*
G75*
G02*
X50832500Y-50966000I0J-175000D01*
G01*
X50832500Y-52666000D01*
G75*
G02*
X50657500Y-52841000I-175000J0D01*
G01*
G37*
G36*
G01*
X51927500Y-52841000D02*
X51577500Y-52841000D01*
G75*
G02*
X51402500Y-52666000I0J175000D01*
G01*
X51402500Y-50966000D01*
G75*
G02*
X51577500Y-50791000I175000J0D01*
G01*
X51927500Y-50791000D01*
G75*
G02*
X52102500Y-50966000I0J-175000D01*
G01*
X52102500Y-52666000D01*
G75*
G02*
X51927500Y-52841000I-175000J0D01*
G01*
G37*
G36*
G01*
X53197500Y-52841000D02*
X52847500Y-52841000D01*
G75*
G02*
X52672500Y-52666000I0J175000D01*
G01*
X52672500Y-50966000D01*
G75*
G02*
X52847500Y-50791000I175000J0D01*
G01*
X53197500Y-50791000D01*
G75*
G02*
X53372500Y-50966000I0J-175000D01*
G01*
X53372500Y-52666000D01*
G75*
G02*
X53197500Y-52841000I-175000J0D01*
G01*
G37*
G36*
G01*
X54467500Y-52841000D02*
X54117500Y-52841000D01*
G75*
G02*
X53942500Y-52666000I0J175000D01*
G01*
X53942500Y-50966000D01*
G75*
G02*
X54117500Y-50791000I175000J0D01*
G01*
X54467500Y-50791000D01*
G75*
G02*
X54642500Y-50966000I0J-175000D01*
G01*
X54642500Y-52666000D01*
G75*
G02*
X54467500Y-52841000I-175000J0D01*
G01*
G37*
G36*
G01*
X55737500Y-52841000D02*
X55387500Y-52841000D01*
G75*
G02*
X55212500Y-52666000I0J175000D01*
G01*
X55212500Y-50966000D01*
G75*
G02*
X55387500Y-50791000I175000J0D01*
G01*
X55737500Y-50791000D01*
G75*
G02*
X55912500Y-50966000I0J-175000D01*
G01*
X55912500Y-52666000D01*
G75*
G02*
X55737500Y-52841000I-175000J0D01*
G01*
G37*
G36*
G01*
X57007500Y-52841000D02*
X56657500Y-52841000D01*
G75*
G02*
X56482500Y-52666000I0J175000D01*
G01*
X56482500Y-50966000D01*
G75*
G02*
X56657500Y-50791000I175000J0D01*
G01*
X57007500Y-50791000D01*
G75*
G02*
X57182500Y-50966000I0J-175000D01*
G01*
X57182500Y-52666000D01*
G75*
G02*
X57007500Y-52841000I-175000J0D01*
G01*
G37*
G36*
G01*
X57007500Y-57791000D02*
X56657500Y-57791000D01*
G75*
G02*
X56482500Y-57616000I0J175000D01*
G01*
X56482500Y-55916000D01*
G75*
G02*
X56657500Y-55741000I175000J0D01*
G01*
X57007500Y-55741000D01*
G75*
G02*
X57182500Y-55916000I0J-175000D01*
G01*
X57182500Y-57616000D01*
G75*
G02*
X57007500Y-57791000I-175000J0D01*
G01*
G37*
G36*
G01*
X55737500Y-57791000D02*
X55387500Y-57791000D01*
G75*
G02*
X55212500Y-57616000I0J175000D01*
G01*
X55212500Y-55916000D01*
G75*
G02*
X55387500Y-55741000I175000J0D01*
G01*
X55737500Y-55741000D01*
G75*
G02*
X55912500Y-55916000I0J-175000D01*
G01*
X55912500Y-57616000D01*
G75*
G02*
X55737500Y-57791000I-175000J0D01*
G01*
G37*
G36*
G01*
X54467500Y-57791000D02*
X54117500Y-57791000D01*
G75*
G02*
X53942500Y-57616000I0J175000D01*
G01*
X53942500Y-55916000D01*
G75*
G02*
X54117500Y-55741000I175000J0D01*
G01*
X54467500Y-55741000D01*
G75*
G02*
X54642500Y-55916000I0J-175000D01*
G01*
X54642500Y-57616000D01*
G75*
G02*
X54467500Y-57791000I-175000J0D01*
G01*
G37*
G36*
G01*
X53197500Y-57791000D02*
X52847500Y-57791000D01*
G75*
G02*
X52672500Y-57616000I0J175000D01*
G01*
X52672500Y-55916000D01*
G75*
G02*
X52847500Y-55741000I175000J0D01*
G01*
X53197500Y-55741000D01*
G75*
G02*
X53372500Y-55916000I0J-175000D01*
G01*
X53372500Y-57616000D01*
G75*
G02*
X53197500Y-57791000I-175000J0D01*
G01*
G37*
G36*
G01*
X51927500Y-57791000D02*
X51577500Y-57791000D01*
G75*
G02*
X51402500Y-57616000I0J175000D01*
G01*
X51402500Y-55916000D01*
G75*
G02*
X51577500Y-55741000I175000J0D01*
G01*
X51927500Y-55741000D01*
G75*
G02*
X52102500Y-55916000I0J-175000D01*
G01*
X52102500Y-57616000D01*
G75*
G02*
X51927500Y-57791000I-175000J0D01*
G01*
G37*
G36*
G01*
X50657500Y-57791000D02*
X50307500Y-57791000D01*
G75*
G02*
X50132500Y-57616000I0J175000D01*
G01*
X50132500Y-55916000D01*
G75*
G02*
X50307500Y-55741000I175000J0D01*
G01*
X50657500Y-55741000D01*
G75*
G02*
X50832500Y-55916000I0J-175000D01*
G01*
X50832500Y-57616000D01*
G75*
G02*
X50657500Y-57791000I-175000J0D01*
G01*
G37*
G36*
G01*
X49387500Y-57791000D02*
X49037500Y-57791000D01*
G75*
G02*
X48862500Y-57616000I0J175000D01*
G01*
X48862500Y-55916000D01*
G75*
G02*
X49037500Y-55741000I175000J0D01*
G01*
X49387500Y-55741000D01*
G75*
G02*
X49562500Y-55916000I0J-175000D01*
G01*
X49562500Y-57616000D01*
G75*
G02*
X49387500Y-57791000I-175000J0D01*
G01*
G37*
G36*
G01*
X48117500Y-57791000D02*
X47767500Y-57791000D01*
G75*
G02*
X47592500Y-57616000I0J175000D01*
G01*
X47592500Y-55916000D01*
G75*
G02*
X47767500Y-55741000I175000J0D01*
G01*
X48117500Y-55741000D01*
G75*
G02*
X48292500Y-55916000I0J-175000D01*
G01*
X48292500Y-57616000D01*
G75*
G02*
X48117500Y-57791000I-175000J0D01*
G01*
G37*
%TD*%
D15*
%TO.C,J3*%
X62484000Y-42164000D03*
X62484000Y-44704000D03*
X59944000Y-42164000D03*
X59944000Y-44704000D03*
X57404000Y-42164000D03*
X57404000Y-44704000D03*
X54864000Y-42164000D03*
X54864000Y-44704000D03*
X52324000Y-42164000D03*
X52324000Y-44704000D03*
X49784000Y-42164000D03*
X49784000Y-44704000D03*
X47244000Y-42164000D03*
X47244000Y-44704000D03*
X44704000Y-42164000D03*
D16*
X44704000Y-44704000D03*
%TD*%
D15*
%TO.C,J1*%
X140520000Y-72000000D03*
X137980000Y-72000000D03*
X135440000Y-72000000D03*
X132900000Y-72000000D03*
X130360000Y-72000000D03*
X127820000Y-72000000D03*
X125280000Y-72000000D03*
X122740000Y-72000000D03*
X120200000Y-72000000D03*
X117660000Y-72000000D03*
X115120000Y-72000000D03*
X112580000Y-72000000D03*
X110040000Y-72000000D03*
X107500000Y-72000000D03*
X104960000Y-72000000D03*
X102420000Y-72000000D03*
X99880000Y-72000000D03*
X97340000Y-72000000D03*
X94800000Y-72000000D03*
X92260000Y-72000000D03*
X89720000Y-72000000D03*
X87180000Y-72000000D03*
X84640000Y-72000000D03*
X82100000Y-72000000D03*
X79560000Y-72000000D03*
X77020000Y-72000000D03*
X74480000Y-72000000D03*
X71940000Y-72000000D03*
X69400000Y-72000000D03*
X66860000Y-72000000D03*
X64320000Y-72000000D03*
X61780000Y-72000000D03*
X59240000Y-72000000D03*
X56700000Y-72000000D03*
X54160000Y-72000000D03*
X51620000Y-72000000D03*
X49080000Y-72000000D03*
X46540000Y-72000000D03*
D16*
X44000000Y-72000000D03*
%TD*%
M02*
