%TF.GenerationSoftware,KiCad,Pcbnew,5.1.6*%
%TF.CreationDate,2020-09-23T23:00:43+02:00*%
%TF.ProjectId,RC2014-LPT,52433230-3134-42d4-9c50-542e6b696361,rev?*%
%TF.SameCoordinates,Original*%
%TF.FileFunction,Soldermask,Bot*%
%TF.FilePolarity,Negative*%
%FSLAX46Y46*%
G04 Gerber Fmt 4.6, Leading zero omitted, Abs format (unit mm)*
G04 Created by KiCad (PCBNEW 5.1.6) date 2020-09-23 23:00:43*
%MOMM*%
%LPD*%
G01*
G04 APERTURE LIST*
%ADD10O,1.700000X1.700000*%
%ADD11R,1.700000X1.700000*%
%ADD12C,4.100000*%
%ADD13C,1.700000*%
%ADD14C,1.252000*%
%ADD15O,1.800000X1.800000*%
%ADD16R,1.800000X1.800000*%
G04 APERTURE END LIST*
D10*
%TO.C,U1*%
X123800000Y-54040000D03*
X75540000Y-38800000D03*
X121260000Y-54040000D03*
X78080000Y-38800000D03*
X118720000Y-54040000D03*
X80620000Y-38800000D03*
X116180000Y-54040000D03*
X83160000Y-38800000D03*
X113640000Y-54040000D03*
X85700000Y-38800000D03*
X111100000Y-54040000D03*
X88240000Y-38800000D03*
X108560000Y-54040000D03*
X90780000Y-38800000D03*
X106020000Y-54040000D03*
X93320000Y-38800000D03*
X103480000Y-54040000D03*
X95860000Y-38800000D03*
X100940000Y-54040000D03*
X98400000Y-38800000D03*
X98400000Y-54040000D03*
X100940000Y-38800000D03*
X95860000Y-54040000D03*
X103480000Y-38800000D03*
X93320000Y-54040000D03*
X106020000Y-38800000D03*
X90780000Y-54040000D03*
X108560000Y-38800000D03*
X88240000Y-54040000D03*
X111100000Y-38800000D03*
X85700000Y-54040000D03*
X113640000Y-38800000D03*
X83160000Y-54040000D03*
X116180000Y-38800000D03*
X80620000Y-54040000D03*
X118720000Y-38800000D03*
X78080000Y-54040000D03*
X121260000Y-38800000D03*
X75540000Y-54040000D03*
D11*
X123800000Y-38800000D03*
%TD*%
D12*
%TO.C,J2*%
X132420000Y-13070000D03*
X132420000Y-60170000D03*
D13*
X133840000Y-51855000D03*
X133840000Y-49085000D03*
X133840000Y-46315000D03*
X133840000Y-43545000D03*
X133840000Y-40775000D03*
X133840000Y-38005000D03*
X133840000Y-35235000D03*
X133840000Y-32465000D03*
X133840000Y-29695000D03*
X133840000Y-26925000D03*
X133840000Y-24155000D03*
X133840000Y-21385000D03*
X131000000Y-53240000D03*
X131000000Y-50470000D03*
X131000000Y-47700000D03*
X131000000Y-44930000D03*
X131000000Y-42160000D03*
X131000000Y-39390000D03*
X131000000Y-36620000D03*
X131000000Y-33850000D03*
X131000000Y-31080000D03*
X131000000Y-28310000D03*
X131000000Y-25540000D03*
X131000000Y-22770000D03*
D11*
X131000000Y-20000000D03*
%TD*%
D14*
%TO.C,H2*%
X139319000Y-26670000D03*
%TD*%
%TO.C,H1*%
X45720000Y-69215000D03*
%TD*%
D15*
%TO.C,J3*%
X62484000Y-42164000D03*
X62484000Y-44704000D03*
X59944000Y-42164000D03*
X59944000Y-44704000D03*
X57404000Y-42164000D03*
X57404000Y-44704000D03*
X54864000Y-42164000D03*
X54864000Y-44704000D03*
X52324000Y-42164000D03*
X52324000Y-44704000D03*
X49784000Y-42164000D03*
X49784000Y-44704000D03*
X47244000Y-42164000D03*
X47244000Y-44704000D03*
X44704000Y-42164000D03*
D16*
X44704000Y-44704000D03*
%TD*%
D15*
%TO.C,J1*%
X140520000Y-72000000D03*
X137980000Y-72000000D03*
X135440000Y-72000000D03*
X132900000Y-72000000D03*
X130360000Y-72000000D03*
X127820000Y-72000000D03*
X125280000Y-72000000D03*
X122740000Y-72000000D03*
X120200000Y-72000000D03*
X117660000Y-72000000D03*
X115120000Y-72000000D03*
X112580000Y-72000000D03*
X110040000Y-72000000D03*
X107500000Y-72000000D03*
X104960000Y-72000000D03*
X102420000Y-72000000D03*
X99880000Y-72000000D03*
X97340000Y-72000000D03*
X94800000Y-72000000D03*
X92260000Y-72000000D03*
X89720000Y-72000000D03*
X87180000Y-72000000D03*
X84640000Y-72000000D03*
X82100000Y-72000000D03*
X79560000Y-72000000D03*
X77020000Y-72000000D03*
X74480000Y-72000000D03*
X71940000Y-72000000D03*
X69400000Y-72000000D03*
X66860000Y-72000000D03*
X64320000Y-72000000D03*
X61780000Y-72000000D03*
X59240000Y-72000000D03*
X56700000Y-72000000D03*
X54160000Y-72000000D03*
X51620000Y-72000000D03*
X49080000Y-72000000D03*
X46540000Y-72000000D03*
D16*
X44000000Y-72000000D03*
%TD*%
M02*
